<svg xmlns="http://www.w3.org/2000/svg"
     viewBox="0 0 280 279"
     width="280" height="279">
  <g fill="#16D7D4" fill-rule="evenodd">
    <path d="M 117 28 L 114 31 L 114 34 L 113 35 L 103 38 L 86 47 L 82 51 L 81 51 L 66 67 L 65 70 L 63 72 L 61 77 L 58 81 L 58 83 L 55 89 L 53 100 L 52 101 L 52 106 L 55 113 L 58 116 L 58 120 L 53 130 L 33 158 L 31 162 L 31 166 L 32 168 L 34 169 L 45 169 L 46 168 L 48 168 L 50 170 L 50 174 L 49 175 L 48 183 L 54 189 L 53 191 L 53 196 L 55 200 L 56 200 L 59 204 L 59 214 L 60 215 L 60 220 L 62 225 L 65 228 L 67 229 L 74 229 L 75 228 L 84 227 L 85 226 L 93 225 L 94 224 L 105 223 L 106 222 L 114 222 L 115 223 L 118 223 L 123 227 L 125 230 L 125 232 L 127 236 L 127 241 L 128 242 L 128 254 L 127 255 L 127 258 L 142 258 L 143 257 L 150 257 L 151 256 L 156 256 L 161 254 L 165 254 L 166 253 L 171 252 L 174 250 L 176 250 L 179 248 L 181 248 L 193 242 L 205 234 L 205 233 L 208 231 L 206 226 L 206 204 L 208 199 L 209 191 L 210 190 L 213 179 L 220 165 L 226 160 L 225 149 L 226 148 L 226 144 L 227 143 L 227 139 L 228 138 L 228 129 L 229 128 L 229 111 L 228 110 L 228 101 L 227 100 L 227 95 L 226 94 L 225 87 L 221 79 L 223 72 L 220 69 L 217 69 L 210 59 L 209 59 L 202 51 L 190 42 L 178 36 L 176 36 L 169 33 L 165 33 L 164 32 L 156 32 L 155 31 L 135 31 L 134 32 L 127 32 L 125 33 L 121 28 Z M 151 237 L 155 237 L 158 241 L 158 243 L 154 247 L 151 247 L 148 244 L 148 239 Z M 162 212 L 168 217 L 167 223 L 164 226 L 157 228 L 152 221 L 152 217 L 157 212 Z M 160 208 L 162 207 L 163 209 L 161 210 Z M 126 204 L 130 203 L 134 206 L 134 210 L 131 213 L 127 213 L 124 210 L 124 206 Z M 187 179 L 188 180 L 187 190 L 186 191 L 186 195 L 185 196 L 185 201 L 184 202 L 183 212 L 181 213 L 175 208 L 166 203 L 163 199 L 167 195 L 173 191 L 182 182 Z M 217 162 L 218 163 L 218 166 L 215 170 L 214 174 L 209 184 L 204 205 L 201 207 L 199 207 L 192 211 L 190 211 L 186 213 L 185 212 L 185 209 L 186 208 L 186 201 L 187 200 L 188 190 L 189 189 L 189 183 L 190 181 L 194 178 L 195 174 L 198 171 L 202 170 L 204 168 Z M 168 157 L 185 172 L 185 177 L 176 185 L 175 185 L 172 189 L 163 195 L 162 194 L 163 159 Z M 122 171 L 124 169 L 126 169 L 131 166 L 133 166 L 155 155 L 159 157 L 161 159 L 161 176 L 160 177 L 160 194 L 159 195 L 159 198 L 157 199 L 155 195 L 145 189 L 144 187 L 132 179 L 122 173 Z M 170 154 L 171 153 L 177 153 L 178 154 L 187 154 L 188 155 L 195 155 L 196 156 L 204 156 L 205 157 L 211 157 L 212 158 L 214 158 L 215 160 L 211 163 L 207 164 L 205 166 L 203 166 L 201 168 L 195 171 L 193 171 L 190 169 L 189 170 L 186 170 L 180 164 L 179 164 L 178 162 L 170 156 Z M 144 132 L 156 145 L 155 153 L 141 160 L 139 160 L 130 165 L 123 167 L 122 166 L 123 161 L 128 152 L 128 150 L 133 141 L 133 139 L 135 135 L 137 133 L 142 133 Z M 212 130 L 213 130 L 225 142 L 223 152 L 222 153 L 220 152 L 214 140 L 214 138 L 211 133 L 211 131 Z M 218 153 L 216 156 L 209 156 L 208 155 L 201 155 L 200 154 L 195 154 L 194 153 L 185 153 L 184 152 L 172 151 L 170 149 L 170 147 L 182 139 L 185 136 L 189 134 L 192 131 L 195 130 L 198 127 L 200 126 L 205 126 L 207 128 L 212 138 L 212 140 L 218 151 Z M 157 111 L 161 111 L 162 112 L 162 142 L 160 144 L 157 143 L 146 130 L 146 128 L 147 127 L 146 120 Z M 164 142 L 164 112 L 166 110 L 169 109 L 176 112 L 179 112 L 182 114 L 196 118 L 200 121 L 199 124 L 197 126 L 190 130 L 187 133 L 169 145 L 166 144 Z M 126 96 L 128 98 L 129 103 L 132 108 L 132 110 L 135 117 L 131 123 L 131 127 L 134 132 L 134 134 L 128 145 L 128 147 L 125 152 L 125 154 L 122 160 L 120 161 L 119 160 L 119 149 L 120 148 L 120 126 L 121 125 L 121 119 L 122 118 L 122 112 L 123 111 L 123 105 L 124 104 L 124 97 Z M 123 94 L 122 96 L 121 112 L 120 113 L 120 117 L 119 118 L 119 122 L 118 123 L 80 104 L 80 103 L 83 101 L 93 99 L 100 96 L 111 94 L 119 91 Z M 178 81 L 182 81 L 185 84 L 186 87 L 189 91 L 189 93 L 191 95 L 196 106 L 198 108 L 201 114 L 201 116 L 200 117 L 196 117 L 195 116 L 187 114 L 179 110 L 176 110 L 175 109 L 170 108 L 167 104 L 167 100 L 170 94 L 172 92 L 176 83 Z M 218 79 L 220 80 L 222 84 L 222 86 L 224 90 L 224 93 L 225 94 L 226 104 L 227 105 L 227 133 L 225 138 L 224 138 L 210 124 L 210 119 L 208 116 L 208 112 L 211 104 L 212 97 L 214 93 L 214 89 L 215 88 L 216 81 Z M 173 77 L 175 79 L 175 82 L 169 93 L 167 95 L 166 99 L 164 101 L 159 102 L 158 103 L 158 107 L 157 109 L 145 118 L 137 117 L 136 116 L 134 108 L 132 105 L 131 100 L 128 94 L 130 89 L 131 88 L 133 88 L 137 86 L 140 86 L 144 84 L 147 84 L 148 83 L 159 81 L 163 79 L 166 79 L 170 77 Z M 189 74 L 212 74 L 215 78 L 215 81 L 214 82 L 211 97 L 210 98 L 208 108 L 205 115 L 202 113 L 199 106 L 197 104 L 197 102 L 194 96 L 192 94 L 186 82 L 186 79 Z M 120 87 L 118 90 L 114 90 L 110 92 L 103 93 L 99 95 L 96 95 L 95 96 L 85 98 L 84 99 L 81 99 L 80 98 L 80 96 L 83 92 L 84 89 L 87 86 L 88 83 L 91 80 L 94 74 L 96 72 L 99 72 L 100 71 L 104 72 L 109 77 L 110 77 L 111 79 L 117 83 Z M 173 70 L 173 73 L 169 76 L 166 76 L 155 80 L 140 83 L 133 86 L 130 86 L 129 85 L 132 78 L 144 60 L 149 60 L 152 58 L 154 58 Z M 192 47 L 194 47 L 199 52 L 200 52 L 207 59 L 207 60 L 209 61 L 214 68 L 214 70 L 212 72 L 190 73 L 185 67 L 185 64 L 187 61 L 188 56 L 190 53 L 190 51 Z M 189 47 L 189 50 L 185 58 L 183 65 L 182 66 L 178 66 L 175 68 L 173 68 L 160 59 L 158 59 L 154 55 L 157 51 L 168 50 L 169 49 L 178 48 L 179 47 L 183 47 L 184 46 L 188 46 Z M 117 40 L 119 41 L 120 51 L 121 52 L 121 64 L 122 65 L 122 76 L 123 77 L 123 83 L 122 84 L 117 81 L 103 69 L 103 61 Z M 122 39 L 125 39 L 133 45 L 140 49 L 139 54 L 141 57 L 141 60 L 139 64 L 135 69 L 133 74 L 127 83 L 125 82 L 125 77 L 124 76 L 123 55 L 122 54 L 122 45 L 121 44 L 121 40 Z M 114 37 L 115 39 L 113 43 L 104 55 L 103 58 L 100 61 L 98 61 L 94 63 L 93 65 L 93 68 L 94 69 L 93 73 L 88 79 L 87 82 L 79 94 L 77 95 L 76 94 L 77 59 L 81 54 L 97 43 L 99 43 L 109 38 Z M 125 35 L 126 34 L 133 34 L 134 33 L 158 33 L 159 34 L 166 34 L 167 35 L 170 35 L 171 36 L 176 37 L 184 41 L 186 44 L 185 45 L 180 45 L 179 46 L 175 46 L 174 47 L 170 47 L 169 48 L 155 50 L 151 45 L 148 45 L 147 44 L 140 47 L 129 39 L 126 38 L 125 37 Z"/>
  </g>
</svg>
